<?xml version="1.0" encoding="UTF-8"?><svg xmlns="http://www.w3.org/2000/svg" xmlns:xlink="http://www.w3.org/1999/xlink" contentScriptType="text/ecmascript" width="375" zoomAndPan="magnify" contentStyleType="text/css" viewBox="0 0 375 374.999991" height="374.999991" preserveAspectRatio="xMidYMid meet" version="1.0"><defs><clipPath id="clip-0"><path d="M 37.5 18.269531 L 337 18.269531 L 337 317 L 37.5 317 Z M 37.5 18.269531 " clip-rule="nonzero"/></clipPath></defs><g clip-path="url(#clip-0)"><path fill="rgb(0%, 0%, 0%)" d="M 336.703125 167.074219 C 336.703125 249.664062 269.691406 316.671875 187.101562 316.671875 C 104.507812 316.671875 37.5 249.664062 37.5 167.074219 C 37.5 84.480469 104.507812 17.472656 187.101562 17.472656 C 269.691406 17.472656 336.703125 84.480469 336.703125 167.074219 Z M 49.46875 167.074219 C 49.46875 243.058594 111.117188 304.707031 187.101562 304.707031 C 263.085938 304.707031 324.734375 243.058594 324.734375 167.074219 C 324.734375 91.085938 263.085938 29.4375 187.101562 29.4375 C 111.117188 29.4375 49.46875 91.085938 49.46875 167.074219 Z M 49.46875 167.074219 " fill-opacity="1" fill-rule="nonzero"/></g><path fill="rgb(0%, 0%, 0%)" d="M 187.101562 196.992188 C 150.761719 196.992188 121.277344 167.507812 121.277344 131.167969 C 121.277344 94.828125 150.761719 65.34375 187.101562 65.34375 C 223.441406 65.34375 252.925781 94.828125 252.925781 131.167969 C 252.925781 167.507812 223.441406 196.992188 187.101562 196.992188 Z M 187.101562 185.023438 C 216.835938 185.023438 240.957031 160.902344 240.957031 131.167969 C 240.957031 101.433594 216.835938 77.3125 187.101562 77.3125 C 157.367188 77.3125 133.246094 101.433594 133.246094 131.167969 C 133.246094 160.902344 157.367188 185.023438 187.101562 185.023438 Z M 187.101562 185.023438 " fill-opacity="1" fill-rule="evenodd"/><path fill="rgb(0%, 0%, 0%)" d="M 145.210938 232.898438 L 228.988281 232.898438 C 256.726562 232.898438 276.613281 242.246094 289.078125 257.832031 C 291.136719 260.386719 294.9375 260.824219 297.496094 258.703125 C 300.113281 256.644531 300.484375 252.90625 298.429688 250.351562 C 283.65625 231.898438 260.34375 220.929688 228.988281 220.929688 L 145.210938 220.929688 C 113.859375 220.929688 90.546875 231.898438 75.773438 250.351562 C 73.714844 252.90625 74.089844 256.644531 76.707031 258.703125 C 79.261719 260.824219 83.066406 260.386719 85.121094 257.832031 C 97.589844 242.246094 117.472656 232.898438 145.210938 232.898438 Z M 145.210938 232.898438 " fill-opacity="1" fill-rule="nonzero"/></svg>